<?xml version="1.0" encoding="UTF-8"?>
<svg id="TRANSPARENT" xmlns="http://www.w3.org/2000/svg" viewBox="0 0 127.88 127.75">
  <defs>
    <style>
      .cls-1 {
        stroke-width: 2px;
      }

      .cls-1, .cls-2, .cls-3 {
        fill: none;
        stroke: #fff;
      }

      .cls-1, .cls-3 {
        stroke-linecap: round;
        stroke-linejoin: round;
      }

      .cls-2 {
        stroke-miterlimit: 10;
        stroke-width: 1.5px;
      }
    </style>
  </defs>
  <path class="cls-3" d="M101.88,52.51l1.29,2.58c.55,1.1,1.44,1.99,2.54,2.54l2.58,1.29c.29.14.29.55,0,.69l-2.58,1.29c-1.1.55-1.99,1.44-2.54,2.54l-1.29,2.58c-.14.29-.55.29-.69,0l-1.29-2.58c-.55-1.1-1.44-1.99-2.54-2.54l-2.58-1.29c-.29-.14-.29-.55,0-.69l2.58-1.29c1.1-.55,1.99-1.44,2.54-2.54l1.29-2.58c.14-.29.55-.29.69,0Z"/>
  <path class="cls-3" d="M29.03,13.4l1.29,2.58c.55,1.1,1.44,1.99,2.54,2.54l2.58,1.29c.29.14.29.55,0,.69l-2.58,1.29c-1.1.55-1.99,1.44-2.54,2.54l-1.29,2.58c-.14.29-.55.29-.69,0l-1.29-2.58c-.55-1.1-1.44-1.99-2.54-2.54l-2.58-1.29c-.29-.14-.29-.55,0-.69l2.58-1.29c1.1-.55,1.99-1.44,2.54-2.54l1.29-2.58c.14-.29.55-.29.69,0Z"/>
  <g>
    <path class="cls-1" d="M29.97,57.52h0c.2.08.43.09.64,0l22.17-9.18c.21-.09.37-.25.45-.45.08-.2.09-.43,0-.64l-2.83-6.84-1.1-2.65c-.09-.21-.25-.37-.45-.45h0c-.2-.08-.43-.09-.64,0l-22.17,9.18c-.21.09-.37.25-.45.45h0c-.08.2-.09.43,0,.64l.51,1.24h0s.25.61.25.61l1.82,4.39,1.35,3.26c.09.21.25.37.45.45Z"/>
    <path class="cls-1" d="M9.04,54.83c-.06-.14-.21-.21-.36-.15l-7.52,3.11c-.13.05-.2.23-.15.36l3.65,8.81c.06.14.22.2.36.15l7.52-3.11c.14-.06.2-.22.15-.36l-1.76-4.26c-.14-.34-1.88-4.55-1.89-4.55Z"/>
    <polygon class="cls-1" points="11.13 56.44 12.94 60.81 13.03 61.03 27.29 55.12 25.39 50.53 11.13 56.44"/>
    <path class="cls-2" d="M70.74,61.74c.68-.43,1.3-.92,1.86-1.49,1.91-1.91,3.1-4.56,3.1-7.48s-1.18-5.57-3.1-7.48c-1.91-1.91-4.56-3.1-7.48-3.1s-5.57,1.18-7.48,3.1c-1.91,1.92-3.1,4.56-3.1,7.48s1.19,5.57,3.1,7.48c.56.56,1.19,1.06,1.86,1.49l-30.59,62.42c-.48.98-.07,2.16.9,2.63.98.48,2.16.07,2.63-.9l30.69-62.62v61.76c0,1.09.89,1.98,1.98,1.98s1.98-.89,1.98-1.98v-61.76l30.69,62.62c.48.98,1.66,1.38,2.63.9.98-.48,1.38-1.66.9-2.63l-30.59-62.42ZM65.13,59.4c-1.83,0-3.49-.74-4.68-1.94-1.2-1.2-1.94-2.86-1.94-4.68s.74-3.49,1.94-4.68c1.2-1.2,2.86-1.94,4.68-1.94s3.48.74,4.68,1.94c1.2,1.2,1.94,2.85,1.94,4.68s-.74,3.49-1.94,4.68c-1.2,1.2-2.85,1.94-4.68,1.94Z"/>
    <path class="cls-1" d="M126.67,23.33l-8.53-20.59h0c-.3-.71-.86-1.24-1.53-1.52h0c-.67-.28-1.44-.3-2.16,0h0s-6.23,2.58-6.23,2.58h0c-.72.3-1.25.86-1.52,1.53-.28.67-.3,1.44,0,2.16l1.86,4.49,5.56,13.42h0s.01.03.01.03l1.1,2.65c.3.71.86,1.24,1.52,1.52.67.28,1.44.3,2.16,0l6.23-2.58c.71-.3,1.24-.86,1.52-1.53h0c.28-.67.3-1.44,0-2.16Z"/>
    <path class="cls-1" d="M112.9,25.89h0s-.16-.39-.16-.39l-6.15-14.85h0c-.09-.22-.26-.38-.47-.47h0c-.21-.09-.44-.09-.66,0l-55.64,23.05h-.01c-.22.1-.38.27-.47.48h0c-.08.21-.09.44,0,.66h0s4.91,11.86,4.91,11.86c2.22-3.69,6.26-6.15,10.88-6.15,3.18,0,6.09,1.17,8.31,3.1l38.98-16.15h.01c.22-.1.38-.27.47-.48h0c.08-.2.09-.44,0-.65h0Z"/>
  </g>
</svg>