<?xml version="1.0" encoding="UTF-8"?>
<svg id="GREEN" xmlns="http://www.w3.org/2000/svg" viewBox="0 0 126.03 128">
  <defs>
    <style>
      .cls-1, .cls-2 {
        stroke-linecap: round;
        stroke-linejoin: round;
        stroke-width: 2px;
      }

      .cls-1, .cls-2, .cls-3, .cls-4 {
        stroke: #fff;
      }

      .cls-1, .cls-3 {
        fill: #00bd70;
      }

      .cls-2 {
        fill: none;
      }

      .cls-3, .cls-4 {
        stroke-miterlimit: 10;
      }

      .cls-4 {
        fill: #fff;
      }
    </style>
  </defs>
  <rect class="cls-4" x="7.57" y="9.01" width="108.85" height="102.22"/>
  <rect class="cls-1" x="1" y="1" width="124.03" height="38.88" rx="8.43" ry="8.43"/>
  <g>
    <rect class="cls-3" x="89.13" y="17.25" width="6.38" height="6.38" rx="3.19" ry="3.19"/>
    <rect class="cls-3" x="99.77" y="17.25" width="6.38" height="6.38" rx="3.19" ry="3.19"/>
    <rect class="cls-3" x="110.4" y="17.25" width="6.38" height="6.38" rx="3.19" ry="3.19"/>
  </g>
  <g>
    <line class="cls-2" x1="17.06" y1="11.62" x2="10.64" y2="27.42"/>
    <line class="cls-2" x1="23.05" y1="11.62" x2="16.64" y2="27.42"/>
    <line class="cls-2" x1="29.05" y1="11.62" x2="22.63" y2="27.42"/>
    <line class="cls-2" x1="35.04" y1="11.62" x2="28.63" y2="27.42"/>
    <line class="cls-2" x1="41.04" y1="11.62" x2="34.62" y2="27.42"/>
    <line class="cls-2" x1="47.03" y1="11.62" x2="40.62" y2="27.42"/>
    <line class="cls-2" x1="53.03" y1="11.62" x2="46.61" y2="27.42"/>
  </g>
  <rect class="cls-1" x="1" y="44.56" width="124.03" height="38.88" rx="8.43" ry="8.43"/>
  <g>
    <g>
      <rect class="cls-3" x="89.13" y="60.81" width="6.38" height="6.38" rx="3.19" ry="3.19"/>
      <rect class="cls-3" x="99.77" y="60.81" width="6.38" height="6.38" rx="3.19" ry="3.19"/>
      <rect class="cls-3" x="110.4" y="60.81" width="6.38" height="6.38" rx="3.19" ry="3.19"/>
    </g>
    <rect class="cls-3" x="9.24" y="59.26" width="9.48" height="9.48" rx="4.74" ry="4.74"/>
  </g>
  <rect class="cls-1" x="1" y="88.12" width="124.03" height="38.88" rx="8.43" ry="8.43"/>
  <g>
    <g>
      <rect class="cls-3" x="89.13" y="104.37" width="6.38" height="6.38" rx="3.19" ry="3.19"/>
      <rect class="cls-3" x="99.77" y="104.37" width="6.38" height="6.38" rx="3.19" ry="3.19"/>
      <rect class="cls-3" x="110.4" y="104.37" width="6.38" height="6.38" rx="3.19" ry="3.19"/>
    </g>
    <rect class="cls-3" x="9.24" y="102.82" width="9.48" height="9.48" rx="4.74" ry="4.74"/>
  </g>
</svg>