<?xml version="1.0" encoding="UTF-8"?>
<svg id="GREEN" xmlns="http://www.w3.org/2000/svg" viewBox="0 0 126.62 128.05">
  <defs>
    <style>
      .cls-1 {
        fill: #fff;
      }

      .cls-1, .cls-2, .cls-3 {
        fill-rule: evenodd;
      }

      .cls-2 {
        stroke-width: 1.02px;
      }

      .cls-2, .cls-3 {
        fill: #00bd70;
        stroke: #fff;
        stroke-miterlimit: 10;
      }

      .cls-3 {
        stroke-width: 2.05px;
      }
    </style>
  </defs>
  <path class="cls-2" d="M30.16,16.63v5.53h51.08c11.06,0,19.88,8.82,19.88,19.88s-8.82,19.88-19.88,19.88h-41.08v.16c-12.73,1.38-22.65,12.16-22.65,25.26,0,14.03,11.38,25.41,25.41,25.41h61.09v-5.53h-61.09c-11.06,0-19.88-8.82-19.88-19.88s8.82-19.88,19.88-19.88h41.08v-.15c12.73-1.38,22.65-12.17,22.65-25.26,0-14.03-11.38-25.41-25.41-25.41H30.16Z"/>
  <g>
    <path class="cls-3" d="M19.4,37.77c-4.87,0-9.55-1.94-12.99-5.38-3.45-3.45-5.38-8.12-5.38-12.99,0-4.87,1.94-9.55,5.38-12.99C9.85,2.96,14.53,1.02,19.4,1.02c4.87,0,9.55,1.94,12.99,5.38,3.45,3.45,5.38,8.12,5.38,12.99,0,10.15-8.23,18.38-18.38,18.38Z"/>
    <polygon class="cls-1" points="33.87 19.4 18.75 7.9 18.75 13.54 6.81 13.54 6.81 25.26 18.75 25.26 18.75 30.9 33.87 19.4"/>
  </g>
  <g>
    <path class="cls-3" d="M125.6,109.78c0,4.57-1.82,8.96-5.05,12.19-3.23,3.23-7.62,5.05-12.19,5.05s-8.96-1.82-12.19-5.05c-3.23-3.23-5.05-7.62-5.05-12.19,0-4.57,1.82-8.96,5.05-12.19,3.23-3.23,7.62-5.05,12.19-5.05,9.52,0,17.25,7.72,17.25,17.25Z"/>
    <path class="cls-1" d="M108.35,97.99c-6.5,0-11.79,5.29-11.79,11.79,0,6.5,5.29,11.79,11.79,11.79,6.5,0,11.79-5.29,11.79-11.79,0-6.5-5.29-11.79-11.79-11.79ZM108.35,99.8c5.52,0,9.98,4.46,9.98,9.98s-4.46,9.98-9.98,9.98c-5.52,0-9.98-4.46-9.98-9.98,0-5.52,4.46-9.98,9.98-9.98Z"/>
    <path class="cls-1" d="M114.39,109.78c0,1.6-.64,3.14-1.77,4.27-1.13,1.13-2.67,1.77-4.27,1.77-1.6,0-3.14-.64-4.27-1.77-1.13-1.13-1.77-2.67-1.77-4.27,0-1.6.64-3.14,1.77-4.27,1.13-1.13,2.67-1.77,4.27-1.77,3.33,0,6.04,2.7,6.04,6.04Z"/>
  </g>
  <path class="cls-3" d="M45.22,64.89c0,2.78-1.1,5.44-3.07,7.4s-4.62,3.07-7.4,3.07c-2.78,0-5.44-1.1-7.4-3.07-1.96-1.96-3.07-4.62-3.07-7.4,0-2.78,1.1-5.44,3.07-7.4,1.96-1.96,4.62-3.07,7.4-3.07,2.78,0,5.44,1.1,7.4,3.07s3.07,4.62,3.07,7.4Z"/>
  <path class="cls-3" d="M75,19.4c0,2.78-1.1,5.44-3.07,7.4-1.96,1.96-4.62,3.07-7.4,3.07-2.78,0-5.44-1.1-7.4-3.07-1.96-1.96-3.07-4.62-3.07-7.4,0-2.78,1.1-5.44,3.07-7.4,1.96-1.96,4.62-3.07,7.4-3.07,2.78,0,5.44,1.1,7.4,3.07,1.96,1.96,3.07,4.62,3.07,7.4Z"/>
  <path class="cls-3" d="M101.12,64.89c0,2.78-1.1,5.44-3.07,7.4-1.96,1.96-4.62,3.07-7.4,3.07-2.78,0-5.44-1.1-7.4-3.07-1.96-1.96-3.07-4.62-3.07-7.4,0-2.78,1.1-5.44,3.07-7.4,1.96-1.96,4.62-3.07,7.4-3.07,2.78,0,5.44,1.1,7.4,3.07,1.96,1.96,3.07,4.62,3.07,7.4Z"/>
  <path class="cls-3" d="M75,109.83c0,2.78-1.1,5.44-3.07,7.4-1.96,1.96-4.62,3.07-7.4,3.07-2.78,0-5.44-1.1-7.4-3.07-1.96-1.96-3.07-4.62-3.07-7.4,0-2.78,1.1-5.44,3.07-7.4,1.96-1.96,4.62-3.07,7.4-3.07,2.78,0,5.44,1.1,7.4,3.07,1.96,1.96,3.07,4.62,3.07,7.4Z"/>
</svg>