<?xml version="1.0" encoding="UTF-8"?>
<svg id="GREEN" xmlns="http://www.w3.org/2000/svg" xmlns:xlink="http://www.w3.org/1999/xlink" viewBox="0 0 129.21 127.5">
  <defs>
    <style>
      .cls-1, .cls-2 {
        fill: none;
      }

      .cls-3 {
        stroke-width: 2px;
      }

      .cls-3, .cls-4, .cls-5, .cls-6 {
        fill: #00bd70;
      }

      .cls-3, .cls-4, .cls-5, .cls-2 {
        stroke: #fff;
      }

      .cls-3, .cls-2 {
        stroke-miterlimit: 10;
      }

      .cls-4, .cls-5 {
        stroke-linecap: round;
        stroke-linejoin: round;
      }

      .cls-5 {
        stroke-width: 1.5px;
      }

      .cls-7 {
        fill: #fff;
      }

      .cls-8 {
        clip-path: url(#clippath);
      }

      .cls-2 {
        stroke-width: 2.28px;
      }
    </style>
    <clipPath id="clippath">
      <circle class="cls-1" cx="90.33" cy="61.01" r="37.74" transform="translate(-16.68 81.74) rotate(-45)"/>
    </clipPath>
  </defs>
  <g>
    <path class="cls-5" d="M57.74.75h-19.07S9.25,30.16,9.25,30.16v88.08c0,4.7,3.81,8.5,8.5,8.5h85.45c4.7,0,8.5-3.81,8.5-8.5V9.25c0-4.7-3.81-8.5-8.5-8.5h-45.47"/>
    <path class="cls-4" d="M30.16,30.16H9.25S38.66.75,38.66.75v20.91c0,4.7-3.81,8.5-8.5,8.5Z"/>
  </g>
  <g>
    <circle class="cls-7" cx="90.33" cy="61.01" r="37.74"/>
    <g>
      <circle class="cls-6" cx="90.33" cy="61.01" r="37.74"/>
      <g class="cls-8">
        <g>
          <path class="cls-7" d="M95.35,28.5l.53.06c.07,0,.11.07.1.13l-.04.19s.01.1.06.12l.43.22s.04.01.06.01h.13c.07,0,.12.05.11.12l-.02.15s0,.02,0,.03l.04.26c0,.05.06.09.11.09h.32s.02,0,.03,0l.51.13c.09.02.11.14.04.19l-.25.21s-.05.09-.03.14l.08.16s.03.04.06.05l.39.16c.06.02.08.09.06.15l-.05.12c-.02.05,0,.12.05.14.05.02.1.01.13-.03l.16-.19s.04-.03.06-.04l.57-.13s.03,0,.04,0l.28.04s.03,0,.04,0l.41-.08s.08-.05.09-.09l.07-.45s0-.06-.03-.09l-.22-.26s-.06-.04-.09-.04l-.59.05s-.08-.01-.1-.05l-.57-.77s-.05-.04-.08-.05c-.16,0-.65-.02-.7,0-.04.02-.28-.06-.39-.1-.04-.01-.06-.04-.07-.08l-.12-.52s-.05-.08-.1-.09l-.51-.02c-.06,0-.1-.05-.11-.1l-.02-.2c0-.08-.09-.12-.16-.09l-.34.15s-.05.01-.07,0l-.24-.06c-.06-.02-.13.03-.14.09l-.04.21c-.01.06.03.12.1.13Z"/>
          <path class="cls-7" d="M95.77,30.74s-.04.09-.01.13l.05.08s.08.06.13.05l.93-.26c.06-.02.09-.07.08-.13l-.07-.4s-.02-.06-.05-.07l-.47-.29s-.05-.05-.05-.08l-.02-.14c-.01-.07-.08-.11-.15-.09l-.11.04s-.06.04-.07.08l-.06.24s-.02.05-.05.07l-.24.15c-.06.04-.07.12-.02.17l.04.04s.04.03.07.04l.17.02c.09,0,.13.12.07.19l-.16.17Z"/>
          <path class="cls-7" d="M125.36,68.39l.26-2s0-.01,0-.02l.45-5.94s0-.01,0-.02c.03-.22.59-4.41.58-4.48,0-.07.04-2.5.04-2.5l.54-2.91-.61-.99-.93,1.93-1.03-1.57-1.38-1.99-1.41-2.09-1.05-1.99-1.6-1.73-.43-1.16.14-.21.98,1.24,1.58,1.79,1.32,2.32,1.46,2.77.37.72.47-.24.52-1.17-1.01-3.14-1.06-3.8h-1.72s-.4-.57-.4-.57c-.08-.12.07-.26.18-.16l.08.07.75-.27c.06-.02.09-.09.07-.15l-.45-1.33s-.01-.03-.02-.04l-1.65-1.82s0-.01-.02-.01l-2.18-1.7c-.17-.14-.41.06-.31.26l.05.1c.06.11-.07.23-.18.16l-.4-.27s-.04-.03-.06-.06l-.63-.97-.57-.91s-.01-.02-.02-.03l-3.42-3.66s-3.5-2.61-3.57-2.62c-.06-.02-4.25-1.87-5.03-2.22-.08-.04-.17-.04-.25,0l-1.42.54s-.08.02-.12.02h-.32c-.17,0-.31-.14-.33-.31,0-.11-.08-.21-.18-.27l-.37-.2c-.12-.06-.27-.07-.39,0l-.26.12c-.09.04-.2.05-.3.03l-1.18-.31s-.03,0-.05,0l-1.17.19-.4.08c-.06.01-.1.08-.08.14l.11.33s.02.05.05.06l.55.34s.06.08.05.13l-.18.59s0,.01,0,.02l-.05.55c0,.05.03.1.07.12l.62.22s.04.02.05.03l.37.44s.04.03.07.04l.61.08s.06,0,.09-.02l.37-.31s.08-.03.12-.02l.35.16s.02.01.03.02l.34.31s.05.03.08.03l.39-.03s.07,0,.09.03l.49.51s.04.06.04.1v.11c.02.09.11.16.2.14l.28-.06c.08-.02.13-.09.12-.16l-.03-.32s0-.04-.02-.06l-.4-.71s0,0,0-.01l-.35-.49s-.06-.06-.1-.06l-.67-.12s-.04-.01-.05-.02l-.63-.53s-.01-.01-.02-.02l-.3-.42s-.02-.05-.02-.08l.02-.1c.01-.08.11-.12.17-.07l.46.32s.03.03.04.06l.12.34s.06.07.1.08h.38s.03.01.05.02l.72.34.6.28c.05.02.11.02.16-.02l.35-.27s.06-.03.09-.03h.61c.05,0,.1.01.13.05.07.09.02.22-.09.24l-.52.13c-.1.03-.15.14-.1.23l.17.3s.01.02.02.03l.47.51s0,0,0,0l.37.35c.07.06.07.17,0,.23l-.08.07s-.1.05-.16.03l-.08-.03c-.08-.03-.17,0-.2.09l-.11.28c-.03.07-.11.11-.18.09l-.58-.14s-.07,0-.1,0l-.52.23c-.06.03-.14.01-.18-.04l-.16-.19s-.02-.02-.04-.03l-.49-.29s-.05-.05-.05-.09v-.29s-.04-.08-.08-.1l-.57-.27s-.08-.01-.12.01l-.14.11s-.06.11-.02.15l.22.29s.02.02.03.03l.45.29s.05.06.05.1v.22s-.05.09-.09.1l-.42.13s-.07.05-.08.09l-.04.44s0,.05.02.07l.1.15s.02.07,0,.1l-.17.38s0,.02,0,.03l-.05.35c0,.05-.05.09-.1.1l-.53.04s-.04,0-.05.02l-.25.16s-.03.02-.05.02l-.67.05c-.06,0-.11.06-.1.12v.11s.05.09.09.1l1.25.32.86.91-.06.44-.26.45-1.84-.02-.71.22.07.28.36.95.07.61-.09.32.63.4.15.67.51.42.54-.31.56.12.06.31h.1s.2-.42.2-.42l.59-.13.57.09.78-.99-.19-.96-.06-.54.61-.18-.38-1,.29-.16.72.12.43-.15.4-.49s.06-.04.09-.03l.65.22s.02,0,.02.01l.46.35s0,0,0,0l.52.47s.02.01.03.02l1.68.57s.01,0,.02,0l.5.31s.02.01.02.02l.47.67s.01.03.01.04v.18s.04.06.07.07c.04.01.09-.01.1-.06l.17-.61s0-.06-.03-.08l-.3-.26c-.05-.05-.03-.13.04-.14l.21-.04c.06-.01.09-.08.05-.13l-.06-.08s-.02-.02-.04-.03l-1.56-.59s0,0,0,0l-.97-.49s0,0-.01,0l-.93-.69s-.01-.01-.02-.02l-.18-.28s-.02-.07,0-.1l.05-.06s.05-.03.07-.03l.62.08s.03,0,.05.02l.54.51s.01.01.02.01l.81.39s0,0,.01,0l1.16.34s.02.01.03.02l.42.4.86.82s0,0,.01,0l.54.35s.02.02.03.03l.5.91s.06.06.1.06h.34c.07.02.13-.04.13-.11v-.1c0-.08.04-.14.11-.18.1-.05.14-.19.08-.29l-.04-.06s-.03-.04-.05-.06l-.72-.52c-.07-.05-.1-.13-.08-.22l.06-.21c.02-.08.09-.15.18-.15h.16c.07-.02.15.02.19.08l.17.26s.07.07.12.09l.13.03c.07.02.13.07.15.14l.09.3s.01.06,0,.09v.06c-.02.11.05.21.16.23l.2.03s.09.03.12.06l.51.56s.07.04.1.04l.8-.1s.03,0,.04-.01l.07-.03s.1-.02.13.02l.07.06s.07.04.11.02l.56-.16s.1,0,.13.04l.2.24s0,0,0,.01l1.22,1.84s0,.01,0,.02l.2.43c.04.09-.03.18-.12.17l-.45-.05s-.04,0-.06,0l-.46.2s-.07.06-.07.1v.02c0,.07-.08.13-.15.11l-2.13-.48s0,0-.01,0l-.71-.26s-.09,0-.13.03l-.12.12s-.05.1-.02.15l.51.83c.04.07,0,.16-.08.18l-.69.16s-.07,0-.1-.02l-1.18-.85c-.05-.04-.12-.06-.18-.08l-1.46-.24-.74-.12c-.15-.02-.27-.12-.33-.26l-.16-.37s-.02-.05-.04-.07l-.46-.68c-.09-.13-.24-.2-.4-.19l-1.3.12s-.03,0-.05,0l-.92.18s-.05,0-.08,0h-.61c-.12.02-.23.06-.3.15l-.57.6c-.08.08-.18.13-.29.14l-1.18.07s-.09,0-.14-.01l-.91-.25-.37-.12h-.12s.05.4.05.4l-.59.43-.6.76.03,1.24-.73.77s-.03.03-.04.04l-.58.43c-.07.05-.11.12-.13.2l-.23,1.3-.1.78c0,.06-.03.12-.07.16l-.87,1.06c-.05.06-.08.14-.07.22l.02.38c0,.07.03.14.07.19l.45.55c.07.09.09.21.05.32l-.1.26c-.03.08-.03.17,0,.25l.12.27c.03.08.04.16,0,.24l-.35.95s-.02.05-.02.08l-.12,1.1c-.01.1.03.21.1.27l.34.31s.08.1.1.16l.24.91c.02.06.05.12.1.16l1.32,1.15s.01.01.02.02l1.2,1.23c.05.05.08.12.09.19l.05.44c.01.13.1.23.22.27l2.57.89c.08.03.15.09.19.18.06.14.21.22.36.19l2.9-.6s.05,0,.07,0c.14,0,.67,0,.71,0,.04,0,1.61-.34,1.94-.41.04,0,.08-.02.11-.05l.63-.42c.13-.09.3-.07.41.04l.73.7c.08.08.19.11.3.08l1.11-.26c.06-.02.13-.01.19.01l.66.26c.1.04.17.12.2.22l.31,1.26s.01.08,0,.12l-.17,1.48c-.01.09.02.18.08.25l.94,1.04c.06.07.11.15.14.24l.53,1.65c.03.1.04.21.02.32l-.25,1.28c-.02.08-.02.16,0,.24l.15.83s0,.04.01.06l.21.73c.04.13.03.28-.02.41l-.36.94s-.02.05-.02.07l-.79,3.06s0,.03,0,.04l-.11.98c-.01.11.03.21.11.28l.23.19c.06.05.09.11.11.18l.32,1.53c.01.06,0,.11-.01.17l-.51,1.5s-.01.05-.02.08l-.08.97c0,.05,0,.1.02.15l.4.97.34.76c.03.07.04.14.02.21l-.29,1.11s-.01.06-.01.09l.02.68c0,.15.11.27.25.31h.07s.1.02.15.01l2.76-.68c.07-.02.13-.05.17-.11l.89-1.08s.01-.01.02-.02l2.19-3.14c.06-.08.07-.19.04-.28l-.02-.07c-.04-.12,0-.25.09-.34l.4-.37s.07-.08.09-.13l1.02-2.81s.01-.05.02-.07l.1-.75c0-.06.03-.11.06-.15l1.68-2.24s.05-.1.06-.15ZM114.48,33.89h0c-.05.06-.13.08-.2.06l-.6-.17c-.08-.02-.16,0-.21.06l-.2.23c-.05.05-.12.08-.19.06l-.67-.11s-.03,0-.05,0l-.43.04c-.09,0-.18-.05-.21-.13l-.26-.7s0-.01,0-.02l-.66-.95s-.01-.11.04-.13l.35-.12s.05,0,.07,0l.63.42c.05.03.12,0,.13-.06l.05-.3c0-.06.08-.09.13-.05l.35.26s0,0,0,0l.51.49s.02.02.04.02l.89.2s.04.01.05.03l.46.6c.06.08.05.2-.02.27Z"/>
          <path class="cls-7" d="M127.29,65.66l-.81,1.63s0,.02-.01.03l-.69,1.11s-.04.09-.05.13l-.26,2.37s0,.04-.01.05c-.08.29-.8,2.79-.79,2.91,0,0,0,0,0,0,.02.26.32.39.52.23l.1-.08s.09-.09.11-.15l1.11-3.23,1.43-3.72s.02-.09.02-.14l-.06-1.03c-.02-.33-.47-.42-.61-.12Z"/>
          <path class="cls-7" d="M83.78,95.47l-.08.32c-.02.08.04.16.13.16.03,0,.06-.01.09-.04l.2-.21c.05-.05.05-.13,0-.18l-.13-.11c-.07-.06-.18-.03-.21.06Z"/>
          <path class="cls-7" d="M106.77,95.26l-1.4.16s-.02,0-.02,0l-2.2.72s-.07,0-.1,0l-.55-.29s-.07-.02-.1,0l-1.71.63s-.03,0-.04,0c-.23,0-2.21.03-2.27.03-.06,0-2.17.23-2.43.26-.02,0-.03,0-.05.02l-1.19.7s-.02,0-.03.01l-2.41.7s-.02,0-.03,0l-2.77.2s-.03,0-.05,0l-3.04-1.03c-.05-.02-.09-.07-.08-.13l.02-.19c0-.06-.04-.12-.1-.13l-.62-.12s-.08-.04-.1-.09l-.15-.46s-.02-.04-.03-.05l-.29-.3s-.03-.04-.03-.07l-.05-.33c-.01-.09-.12-.14-.2-.08l-.58.42s-.06.08-.05.13l.06.31c.01.05-.02.11-.06.13l-.15.08c-.08.04-.09.14-.03.2l.19.18c.06.06.05.17-.03.2l-.18.09c-.08.04-.09.15-.03.21l.24.22s.03.03.03.05l.07.19c.03.08-.03.17-.11.17l-1.72.07c-.08,0-.14.08-.12.16l.06.23s.05.08.1.09l7.3,1.52s.02,0,.04,0l9.11-.83s.02,0,.03,0l5.49-1.87s.03-.01.04-.02l2.41-1.86c.1-.08.04-.24-.09-.22Z"/>
          <path class="cls-7" d="M81.39,79.51l-.42-1.11c-.03-.07-.01-.16.04-.22l.41-.5s.02-.03.04-.04l1.1-.83s.05-.03.08-.04c.22-.05,1.15-.27,1.19-.27.04,0,.21-.28.3-.43.04-.06.1-.1.17-.11.12,0,.21-.11.2-.23l-.03-.5s.01-.1.04-.14l.48-.71c.04-.06.06-.12.08-.19l.13-.75s.02-.09.04-.13l.33-.67s.03-.1.02-.15l-.3-2.19c-.01-.07.01-.15.06-.21l.99-1.17s.02-.03.03-.05l1.04-2.01s.03-.09.03-.14l-.11-1.39c-.01-.13-.11-.23-.23-.24l-.51-.06c-.05,0-.1-.03-.14-.06l-.91-.79s-.07-.04-.1-.06l-2.65-.73c-.05-.01-.11-.01-.17,0l-1.22.46c-.17.07-.36-.06-.36-.24v-.25c0-.06-.03-.12-.07-.17l-.31-.37c-.04-.05-.1-.08-.17-.09l-1.37-.18c-.06,0-.13,0-.18.04l-.66.44c-.14.1-.34.03-.4-.13l-.29-.82c-.03-.07-.08-.13-.16-.16l-.43-.16c-.09-.03-.16-.12-.17-.21l-.09-.69s-.02-.07-.03-.1l-1.11-1.92-.95-.3s-.08-.01-.12,0l-1.41.28c-.07.01-.14,0-.2-.05l-1.12-.98s-.03-.02-.04-.04l-.7-.97s-.05-.05-.08-.07l-.58-.3c-.11-.06-.16-.19-.1-.31l.02-.05c.07-.16-.05-.34-.22-.33l-.65.03s-.09.02-.12.04l-.44.31s-.09.04-.14.04l-1.37-.06s-.04,0-.06,0l-.55.11c-.06.01-.12,0-.17-.03l-.74-.48s-.02-.01-.03-.02l-.7-.32c-.07-.03-.15-.03-.21,0l-1.5.86s-.08.07-.1.12l-.41,1.01c-.04.1-.15.16-.26.14l-.24-.05s-.05-.02-.07-.03l-.44-.27c-.05-.03-.11-.04-.17-.03l-.75.17s-.06.02-.09.04l-.25.2c-.09.07-.22.06-.31-.02l-.2-.19s-.07-.1-.07-.17l-.02-2.15s0-.04,0-.07l.23-.8c.09-.31-.11-.62-.42-.68l-.5-.1s-.02,0-.02,0h-.63c-.11,0-.18-.13-.12-.23l.95-1.46s.02-.03.02-.05l.22-1.06s0,0,0,0l.2-.74s0-.09-.03-.13c-.08-.09-.24-.27-.28-.26-.04,0-.74.18-.95.23-.04,0-.07.03-.09.07l-.65,1.11-.56.9c-.04.06-.12.08-.19.05l-.41-.21s-.08-.07-.08-.13v-.96s.01-.01.01-.02l-.13-1.02s0-.02,0-.03l.04-.37s.02-.06.04-.09l.55-.52s.03-.03.04-.05l1.07-2.95s.02-.04.04-.06l.54-.45s.07-.04.11-.03l.52.06s0,0,.01,0l.39.08s.08,0,.11-.02l.62-.42s.05-.02.08-.02h1.37c.08,0,.14.06.14.14l-.05,1.61s0,.03,0,.04l.17.63c.02.07.09.12.17.1l.13-.03c.06-.01.1-.06.11-.11l.44-2.69s.01-.05.03-.07l1.15-1.4s.03-.03.04-.04l2.06-1.07s.07-.06.07-.1l.22-1.2s.01-.04.02-.06l1.77-2.42c.05-.07.13-.1.21-.1l.35.03c.08,0,.15-.03.2-.08l.37-.44s.06-.05.09-.07l.77-.31s.02,0,.02-.01l1-.76s.01,0,.02,0l1.05-.51s0,0,.01,0l.14-.04c.1-.03.16.1.08.16l-.4.33s0,0,0,0l-.37.26c-.08.05-.03.18.06.17l.59-.06s.02,0,.03-.01l1.65-.89s0,0,0,0l.25-.16s.04-.04.04-.06c.02-.12.08-.45.04-.45-.04,0-.8.09-1,.11-.03,0-.06,0-.08-.03l-.35-.4s-.03-.1.01-.13l.35-.29s.04-.11,0-.14l-.31-.25s-.05-.11,0-.14l.28-.24s.07-.03.1-.01l.59.32s.07.01.1,0l.4-.3s.03-.02.05-.02l.98-.06s.04,0,.05-.02l.31-.26s.01,0,.02-.01l.56-.27s.05-.01.08,0c.07.03.07.12.02.16l-.5.35s-.01,0-.02.02l-.71.82c-.05.05-.02.14.05.15l.41.08s.02,0,.03,0l1.24-.08s.04,0,.06.01l.18.12c.05.04.13,0,.14-.06l.1-.42s0-.03,0-.05l-.12-.37s-.01-.03-.02-.04l-.39-.41s-.03-.1,0-.13l.6-.57s.03-.06.03-.09l-.16-.75s-.02-.05-.05-.06l-.73-.4s-.05-.05-.05-.08v-.87s-.01-.71-.01-.71c0-.07-.08-.11-.14-.08l-.94.6s-.04.02-.06.01l-.44-.04c-.07,0-.11-.09-.06-.15l.23-.29s.03-.08,0-.11c-.09-.12-.28-.41-.3-.51-.03-.12-1.07.23-1.21.28,0,0-.02,0-.03.01l-.96.75s-.03.03-.03.05l-.21.66s-.01.03-.03.04c-.09.08-.48.42-.52.44-.05.02-.65.5-.71.55,0,0,0,0-.01,0l-1.01.56s-.03.03-.04.04c-.06.14-.31.73-.35.8-.03.05-.21.01-.33-.01-.05-.01-.08-.06-.07-.11l.14-.68s.01-.03.02-.05l.35-.36s.04-.09,0-.12l-.51-.65s-.03-.09,0-.12l.63-.71s.02-.02.04-.03l.86-.32s.02,0,.03-.02l.59-.48s.01,0,.02-.01l.72-.38s.03-.01.05-.01l.73.02s.04,0,.05-.01l.42-.26s.04-.01.06-.01l.33.03s.06-.01.08-.04l.44-.63s0-.01.02-.02l.49-.42s.02-.01.03-.02l1.25-.44s.03-.02.04-.03l.28-.35s.03-.03.05-.03l.38-.1c.09-.02.16.09.09.16l-.22.22s-.02.01-.03.02l-.63.29s-.05.04-.05.07l-.02.13s-.03.06-.06.07l-1.09.43s-.03.02-.04.04l-.1.16c-.03.05,0,.13.06.14l.28.06s.04,0,.06,0l.51-.22s.1,0,.12.05l.09.23s.03.05.06.05l.36.11s.09,0,.11-.05l.17-.34s.08-.07.13-.04l.16.08s.05.01.07,0l.7-.2s.06-.04.07-.08l.02-.34s0-.03.02-.05l.2-.27c.04-.05.12-.05.16.01l.05.09c.03.05.1.06.14.03l.36-.31s.02-.03.03-.05l.2-.74s0-.03,0-.05l-.11-.39s-.05-.07-.09-.07l-1.32.04-1.5.09-9.58,3.79-4.15,4-6.89,7.89s-.02.03-.03.05l-1.51,4.59s0,.04,0,.06l.23,2.03s0,.01,0,.02l.12.45c.02.07.08.11.15.1l.27-.03c.06,0,.11-.05.12-.1l.32-1.15s0-.01,0-.02c.06-.15.29-.09.27.07l-.04.37s0,.01,0,.02l-.34,1.43s0,.01,0,.02l-.45,1.1s-.01.03-.01.05v.61s0,.03,0,.05l.51,1.34s0,0,0,.01l.41.83c.03.06.1.09.17.07l.45-.13s.03-.01.05-.02l.24-.18c.07-.05.17-.03.21.05l.15.31s0,.02,0,.02l.17.58c.02.08.08.13.16.16l.43.13c.06.02.12.07.15.13l.15.34c.03.07.09.12.16.13l.48.1c.11.02.18.12.18.22l.02.99s0,0,0,.01l.07.85c0,.09.07.17.15.2l.14.05s.02,0,.03,0l.23.05c.09.02.16.09.18.18l.05.23c.02.09.09.16.18.18l.25.05c.05.01.1.04.13.08l.26.3s.09.07.14.08c.17.02.3-.13.26-.29l-.09-.36c-.03-.11.02-.22.13-.27l.43-.21c.06-.03.12-.03.18-.01l.46.16c.08.03.14.1.16.18l.2,1.14s0,.02,0,.03l.08,1.51s0,.05,0,.08l-.2.69c-.04.13-.12.23-.24.3l-.95.53c-.15.08-.24.23-.26.4l-.06.91s0,.03,0,.04l.16,1.95c0,.11.09.21.2.24.16.04.24.2.19.35l-.13.33c-.02.06-.02.12,0,.18l.23.7s0,.01,0,.02l.12.45c.02.06.05.12.11.15l.52.35s.06.05.08.09l2.16,3.93s.02.05.03.07l.16.75c.02.08.07.15.14.18l3.01,1.46c.06.03.11.08.13.15l1.59,4.28s0,.02,0,.02l.13,1.17s0,.02,0,.03l.54,1.35.81,2.12s0,.02,0,.03l.04,1.51s0,.04.02.05l.79,1.14.92,1.43s.01.02.02.02l.62.5s0,0,.01,0l.35.19s.06.06.05.1l-.04.27s0,.02,0,.03l.1.53s0,.03,0,.04l-.07.24c-.02.06.02.12.08.12l.61.08s.05.02.07.04l.84,1.28s.02.02.03.03l.85.61s.01,0,.02.01l1.3.55s.01,0,.02,0l.81.54s.04.02.06.02l.98-.03s.04,0,.05-.02l.24-.17c.06-.04.05-.14-.02-.17l-.97-.43s-.02-.01-.03-.02l-1.12-1.26s-.03-.06-.02-.09l.17-.68s-.01-.1-.06-.11l-1.21-.48s-.06-.05-.06-.09v-.27s.01-.07.04-.09l.27-.16s.06-.07.04-.11l-.18-.63s0-.09.04-.11l.19-.12c.06-.04.06-.12,0-.16l-.83-.64c-.05-.04-.05-.13,0-.16l.15-.09s.03-.01.04-.01l.31-.03c.06,0,.1-.06.09-.11l-.14-.89c0-.05.03-.1.08-.11l1.64-.32s.04-.01.05-.03l.48-.52s.03-.1,0-.14l-.58-.53s-.02-.02-.02-.03l-.3-.65s-.03-.04-.06-.05c-.11-.04-.07-.2.04-.19l.6.04s.04,0,.05.02l.41.31s.09.03.12,0l.99-.79s.03-.03.03-.05l.1-.38s0-.05-.01-.08l-.36-.59s-.02-.06,0-.09l.1-.22c.02-.05.09-.07.14-.04l.4.22.4-1.36.51-.8c.04-.06.05-.13.02-.2Z"/>
          <path class="cls-7" d="M64.31,50.48c.06,0,.1-.05.12-.11l.05-.21c.01-.05,0-.1-.05-.14l-.71-.6s0,0-.01-.01l-.86-.93s-.03-.03-.05-.03l-.76-.31s-.09-.01-.13.01l-.8.52s-.04.04-.05.06l-.15.33c-.04.1.03.21.14.2l.43-.04s0,0,0,0l.75-.02s.09.02.12.06l.26.36s.02.04.02.06l.04.31s.02.06.04.08l.45.5s.08.05.13.05l1.04-.16Z"/>
          <path class="cls-7" d="M64.88,51.01l-.2.09c-.1.05-.11.19-.02.25l.03.02s.07.03.11.02l.78-.18s.03,0,.04,0l.72.06s.05,0,.08-.02l.21-.11c.07-.04.1-.13.05-.2l-.16-.26s-.04-.04-.06-.05l-.52-.23s-.03,0-.04-.01l-.52-.06s-.03,0-.05,0l-.39.1c-.09.02-.14.13-.09.21l.1.18c.04.07.01.16-.07.2Z"/>
          <path class="cls-7" d="M63.13,51.3l-.31.1c-.1.03-.13.16-.05.24l.04.04s.07.04.1.04h.26c.07-.01.13-.07.13-.14v-.13c.01-.1-.08-.17-.18-.14Z"/>
          <path class="cls-7" d="M68.42,51.03h-.71c-.08,0-.14.06-.14.14v.05s.03.09.06.12c.07.04.17.1.2.1.03,0,.4-.05.63-.09.09-.01.15-.12.11-.2l-.02-.03s-.07-.08-.13-.08Z"/>
          <path class="cls-7" d="M78.73,25.39s1.04-.19,1.16-.21c0,0,.02,0,.02,0l.97-.33s.04-.01.07,0l.75.03s.02,0,.03,0l.25-.03c.06,0,.11.01.15.06l.15.16s.07.05.11.06c.13.01.21.17.13.28l-.18.26s-.04.1-.03.15l.05.19c.02.06,0,.13-.05.18l-.58.52s-.04.04-.05.07l-.23.6s-.02.09,0,.13l.23.6c.02.06.07.1.13.11l1.04.21s.04.01.06.02l.18.11c.24.15.56.09.73-.15l1.05-1.45s.06-.06.11-.07l1.05-.22c.05-.01.1-.05.12-.1l.11-.22c.03-.05.07-.09.13-.1.34-.05,1.53-.23,1.58-.24.04,0,.57-.47.68-.57.01-.01.02-.03.03-.04l.47-.77s.03-.1.01-.15l-.22-.58s-.05-.08-.09-.1l-.76-.36s-.05-.02-.08-.02l-5.63.15s-.04,0-.06.01l-3.44,1.42s-.08.06-.1.11c-.04.11-.09.3-.06.29Z"/>
          <path class="cls-7" d="M92.06,23.67l.78.34s.03,0,.04.01l1.04.12c.1.01.17-.08.15-.17l-.05-.23c-.01-.05-.05-.09-.1-.11l-1.26-.32s-.04,0-.06,0l-.51.08c-.14.02-.16.21-.03.27Z"/>
          <path class="cls-7" d="M89.6,27.06s.05.02.07.02l.72-.06s.01,0,.02,0l.6.04s.06,0,.08-.03l.34-.28s.04-.06.04-.09v-.32c0-.07-.06-.12-.13-.11l-1,.11s-.03,0-.04.01l-.78.38s-.02,0-.03,0c-.1.02-.13.15-.04.21l.15.11Z"/>
          <path class="cls-7" d="M105.96,34.21s-.11-.03-.16,0l-.07.04c-.08.05-.09.15-.03.22l.22.25c.07.08.21.06.25-.04,0-.02.01-.03.01-.05,0-.07.01-.25-.02-.28-.02-.03-.13-.1-.2-.15Z"/>
          <path class="cls-7" d="M106.19,35.29l.12.63c.01.05.05.1.1.12l.37.11c.08.02.17-.03.19-.11l.08-.38s0-.04,0-.05l-.03-.19c0-.06-.05-.1-.1-.12l-.54-.17c-.11-.03-.21.06-.19.17Z"/>
          <path class="cls-7" d="M108.58,36.64l.41.21s.02,0,.02,0l.48.15c.1.03.21-.06.19-.16l-.03-.22c0-.06-.06-.11-.12-.12l-.81-.16s-.08,0-.11.02l-.05.03c-.09.06-.08.2.02.25Z"/>
        </g>
      </g>
      <circle class="cls-2" cx="90.33" cy="61.01" r="37.74"/>
    </g>
  </g>
  <path class="cls-3" d="M46.76,76.38c-9.05.15-17.17,1.74-24.24,5.75-7.42,4.2-13.76,11.11-18.87,21.83-.33.69-1.17.99-1.86.66-.58-.28-.88-.9-.77-1.5,2.2-21.06,8.56-34.09,17.07-41.89,8.21-7.53,18.36-10.14,28.68-10.35v-9.35c0-.77.63-1.4,1.4-1.4.33,0,.63.12.87.3l31.3,22.04c.63.44.78,1.31.34,1.94-.1.14-.22.26-.36.35l-31.35,22.08c-.63.44-1.5.29-1.94-.34-.17-.24-.26-.52-.25-.8v-9.33Z"/>
</svg>