<?xml version="1.0" encoding="UTF-8"?>
<svg id="GREEN" xmlns="http://www.w3.org/2000/svg" viewBox="0 0 147.55 127.75">
  <defs>
    <style>
      .cls-1 {
        stroke-width: 2px;
      }

      .cls-1, .cls-2, .cls-3, .cls-4, .cls-5, .cls-6 {
        stroke: #fff;
      }

      .cls-1, .cls-2, .cls-4, .cls-5 {
        stroke-linejoin: round;
      }

      .cls-1, .cls-2, .cls-4, .cls-5, .cls-6 {
        stroke-linecap: round;
      }

      .cls-1, .cls-3, .cls-4 {
        fill: #00bd70;
      }

      .cls-2 {
        fill: #fff;
      }

      .cls-2, .cls-4 {
        stroke-width: 1.5px;
      }

      .cls-3 {
        stroke-miterlimit: 10;
      }

      .cls-5, .cls-6 {
        fill: none;
        stroke-width: 3px;
      }

      .cls-6 {
        stroke-linejoin: bevel;
      }
    </style>
  </defs>
  <polygon class="cls-2" points="101.65 123.15 45.9 123.15 56.24 93.48 91.32 93.48 101.65 123.15"/>
  <path class="cls-4" d="M108.13,127v-3.23c0-2.47-2-4.46-4.46-4.46h-59.78c-2.47,0-4.46,2-4.46,4.46v3.23h68.71Z"/>
  <g>
    <g>
      <path class="cls-1" d="M146.55,11.6c0-5.85-4.75-10.6-10.6-10.6H11.6C5.75,1,1,5.75,1,11.6v79.01h145.55V11.6Z"/>
      <path class="cls-1" d="M1,90.61v11.56c0,5.85,4.75,10.6,10.6,10.6h124.35c5.85,0,10.6-4.75,10.6-10.6v-11.56H1Z"/>
    </g>
    <g>
      <rect class="cls-3" x="16.17" y="98.08" width="7.44" height="7.44" rx="3.72" ry="3.72"/>
      <rect class="cls-3" x="28.58" y="98.08" width="7.44" height="7.44" rx="3.72" ry="3.72"/>
      <rect class="cls-3" x="40.98" y="98.08" width="7.44" height="7.44" rx="3.72" ry="3.72"/>
    </g>
    <path class="cls-1" d="M98.81,80.21l6.91-.08c.27,0,.51-.2.56-.47l1.72-8.41.46-.12c2.27-.6,4.45-1.53,6.49-2.75l.42-.25,7.14,4.64c.23.15.55.11.74-.08l5-5.12c.19-.2.22-.51.06-.74l-4.79-7,.25-.42c1.19-2.05,2.08-4.26,2.64-6.56l.12-.47,8.38-1.78c.27-.06.47-.3.46-.58l-.09-7.15c0-.28-.2-.52-.48-.57l-8.42-1.58-.13-.47c-.61-2.24-1.53-4.39-2.73-6.38l-.25-.42,4.64-7.14c.15-.23.12-.54-.08-.74l-5.12-5c-.19-.19-.51-.22-.74-.06l-7.01,4.79-.42-.25c-2.05-1.19-4.25-2.07-6.56-2.64l-.47-.12-1.78-8.38c-.06-.27-.3-.46-.57-.46l-7.16.08c-.28,0-.52.2-.57.48l-1.58,8.42-.47.13c-2.27.61-4.45,1.55-6.48,2.78l-.42.25-7.23-4.7c-.23-.15-.55-.11-.74.08l-4.83,4.94c-.19.2-.22.5-.07.73l4.78,7.24-.24.42c-1.18,2.04-2.06,4.23-2.62,6.51l-.12.47-8.38,1.78c-.27.06-.47.3-.46.58l.08,6.91c0,.27.2.51.47.56l8.41,1.73.12.46c.62,2.32,1.56,4.53,2.81,6.58l.25.42-4.7,7.23c-.15.23-.12.54.08.74l4.95,4.83c.19.19.5.22.73.07l7.24-4.78.42.24c2.04,1.18,4.23,2.05,6.51,2.61l.47.12,1.78,8.38c.06.27.3.46.57.46h0ZM86.82,47c-.09-8.36,6.63-15.25,14.98-15.35h.2c8.26,0,15.06,6.72,15.16,14.98.1,8.36-6.62,15.25-14.98,15.35h-.19c-8.27,0-15.07-6.72-15.17-14.99Z"/>
    <g>
      <line class="cls-6" x1="41.08" y1="14.22" x2="34.42" y2="50.09"/>
      <polyline class="cls-5" points="26.1 42.08 16.17 32.16 26.1 22.23"/>
      <polyline class="cls-5" points="49.4 22.23 59.33 32.16 49.4 42.08"/>
    </g>
  </g>
</svg>