<?xml version="1.0" encoding="UTF-8"?>
<svg id="GREEN" xmlns="http://www.w3.org/2000/svg" xmlns:xlink="http://www.w3.org/1999/xlink" viewBox="0 0 148.83 127.97">
  <defs>
    <style>
      .cls-1, .cls-2, .cls-3 {
        fill: none;
      }

      .cls-4, .cls-5 {
        fill: #00bd70;
      }

      .cls-4, .cls-5, .cls-3 {
        stroke: #fff;
        stroke-linecap: round;
        stroke-linejoin: round;
      }

      .cls-4, .cls-3 {
        stroke-width: 2.09px;
      }

      .cls-5 {
        stroke-width: 1.85px;
      }

      .cls-2 {
        stroke: #00bd70;
        stroke-miterlimit: 10;
        stroke-width: 2px;
      }

      .cls-6 {
        fill: #fff;
      }

      .cls-7 {
        clip-path: url(#clippath);
      }
    </style>
    <clipPath id="clippath">
      <rect class="cls-1" x="12.49" y="6.19" width="113.03" height="64.14"/>
    </clipPath>
  </defs>
  <path class="cls-4" d="M131.44,72.35V7.43c0-3.56-2.89-6.44-6.44-6.44H13.01c-3.56,0-6.44,2.89-6.44,6.44v64.92h124.88Z"/>
  <g>
    <line class="cls-3" x1="138.07" y1="78.21" x2="147.94" y2="78.21"/>
    <line class="cls-3" x1="142.69" y1="69.14" x2="142.69" y2="105.27"/>
  </g>
  <rect class="cls-4" x=".89" y="72.35" width="136.23" height="12.81"/>
  <g class="cls-7">
    <g>
      <circle class="cls-6" cx="13.43" cy="7.13" r=".94"/>
      <circle class="cls-6" cx="25.77" cy="7.13" r=".94"/>
      <circle class="cls-6" cx="38.11" cy="7.13" r=".94"/>
      <circle class="cls-6" cx="50.44" cy="7.13" r=".94"/>
      <circle class="cls-6" cx="62.78" cy="7.13" r=".94"/>
      <circle class="cls-6" cx="75.12" cy="7.13" r=".94"/>
      <circle class="cls-6" cx="87.46" cy="7.13" r=".94"/>
      <circle class="cls-6" cx="99.79" cy="7.13" r=".94"/>
      <circle class="cls-6" cx="112.13" cy="7.13" r=".94"/>
      <circle class="cls-6" cx="124.47" cy="7.13" r=".94"/>
      <circle class="cls-6" cx="13.43" cy="19.46" r=".94"/>
      <circle class="cls-6" cx="25.77" cy="19.46" r=".94"/>
      <circle class="cls-6" cx="38.11" cy="19.46" r=".94"/>
      <circle class="cls-6" cx="99.79" cy="19.46" r=".94"/>
      <circle class="cls-6" cx="112.13" cy="19.46" r=".94"/>
      <circle class="cls-6" cx="124.47" cy="19.46" r=".94"/>
      <circle class="cls-6" cx="13.43" cy="31.8" r=".94"/>
      <circle class="cls-6" cx="25.77" cy="31.8" r=".94"/>
      <circle class="cls-6" cx="38.11" cy="31.8" r=".94"/>
      <circle class="cls-6" cx="99.79" cy="31.8" r=".94"/>
      <circle class="cls-6" cx="112.13" cy="31.8" r=".94"/>
      <circle class="cls-6" cx="124.47" cy="31.8" r=".94"/>
      <circle class="cls-6" cx="13.43" cy="44.14" r=".94"/>
      <circle class="cls-6" cx="25.77" cy="44.14" r=".94"/>
      <circle class="cls-6" cx="38.11" cy="44.14" r=".94"/>
      <circle class="cls-6" cx="99.79" cy="44.14" r=".94"/>
      <circle class="cls-6" cx="112.13" cy="44.14" r=".94"/>
      <circle class="cls-6" cx="124.47" cy="44.14" r=".94"/>
      <circle class="cls-6" cx="13.43" cy="56.48" r=".94"/>
      <circle class="cls-6" cx="25.77" cy="56.48" r=".94"/>
      <circle class="cls-6" cx="38.11" cy="56.48" r=".94"/>
      <circle class="cls-6" cx="99.79" cy="56.48" r=".94"/>
      <circle class="cls-6" cx="112.13" cy="56.48" r=".94"/>
      <circle class="cls-6" cx="124.47" cy="56.48" r=".94"/>
      <circle class="cls-6" cx="13.43" cy="68.81" r=".94"/>
      <circle class="cls-6" cx="25.77" cy="68.81" r=".94"/>
      <circle class="cls-6" cx="38.11" cy="68.81" r=".94"/>
      <circle class="cls-6" cx="50.44" cy="68.81" r=".94"/>
      <circle class="cls-6" cx="62.78" cy="68.81" r=".94"/>
      <circle class="cls-6" cx="75.12" cy="68.81" r=".94"/>
      <circle class="cls-6" cx="87.46" cy="68.81" r=".94"/>
      <circle class="cls-6" cx="99.79" cy="68.81" r=".94"/>
      <circle class="cls-6" cx="112.13" cy="68.81" r=".94"/>
      <circle class="cls-6" cx="124.47" cy="68.81" r=".94"/>
    </g>
  </g>
  <g>
    <rect class="cls-3" x="41.89" y="12.13" width="24.41" height="24.41"/>
    <rect class="cls-3" x="41.89" y="41.05" width="24.41" height="24.41"/>
    <rect class="cls-3" x="71.71" y="41.05" width="24.41" height="24.41"/>
    <g>
      <rect class="cls-6" x="71.71" y="12.13" width="24.41" height="24.41"/>
      <g>
        <line class="cls-2" x1="83.91" y1="18.94" x2="83.91" y2="29.74"/>
        <line class="cls-2" x1="89.31" y1="24.34" x2="78.51" y2="24.34"/>
      </g>
    </g>
  </g>
  <g>
    <rect class="cls-5" x="105.48" y="101.03" width="41.83" height="10.09" transform="translate(232.47 -20.32) rotate(90)"/>
    <rect class="cls-5" x="-9.3" y="101.03" width="41.83" height="10.09" transform="translate(117.68 94.46) rotate(90)"/>
    <rect class="cls-6" x="124.36" y="112.47" width="4.07" height="10.09" transform="translate(243.92 -8.88) rotate(90)"/>
    <rect class="cls-6" x="9.57" y="112.47" width="4.07" height="10.09" transform="translate(129.13 105.91) rotate(90)"/>
    <polygon class="cls-6" points="121.35 99.69 121.35 96.1 16.66 96.1 16.66 99.69 64.28 99.69 64.28 107.73 16.66 107.73 16.66 111.32 121.35 111.32 121.35 107.73 67.87 107.73 67.87 99.69 121.35 99.69"/>
  </g>
</svg>