<?xml version="1.0" encoding="UTF-8"?>
<svg id="TRANSPARENT" xmlns="http://www.w3.org/2000/svg" viewBox="0 0 162.21 123.83">
  <defs>
    <style>
      .cls-1 {
        stroke-miterlimit: 10;
      }

      .cls-1, .cls-2 {
        fill: none;
        stroke: #fff;
      }

      .cls-2 {
        stroke-linecap: round;
        stroke-linejoin: round;
        stroke-width: 2px;
      }
    </style>
  </defs>
  <path class="cls-2" d="M153.02,107.92V12.2c0-6.19-5.02-11.2-11.2-11.2H20.39c-6.19,0-11.2,5.02-11.2,11.2v95.72"/>
  <rect class="cls-1" x="77.17" y="8.66" width="7.86" height="7.86" rx="3.93" ry="3.93" transform="translate(162.21 25.17) rotate(180)"/>
  <g>
    <g>
      <path class="cls-2" d="M81.1,66.57l-34-13.6v22.83s2.88,2.15,7.93,4.46c.44-1.74,1.99-2.99,3.81-2.99,1.96,0,3.63,1.44,3.91,3.39l.38,2.64c11.93,3.55,29.43,4.85,48.73-6.65v-22.38l-30.76,12.3Z"/>
      <polygon class="cls-2" points="81.1 66.57 38.3 49.45 81.1 34.04 123.91 49.45 81.1 66.57"/>
    </g>
    <line class="cls-2" x1="58.85" y1="58.01" x2="58.85" y2="77.27"/>
    <path class="cls-2" d="M59.43,89.25h-1.17c-2.4,0-4.25-2.13-3.91-4.51l.58-4.09c.28-1.95,1.94-3.39,3.91-3.39h0c1.96,0,3.63,1.44,3.91,3.39l.58,4.09c.34,2.38-1.51,4.51-3.91,4.51Z"/>
  </g>
  <path class="cls-2" d="M161.21,108.43c0,3.98-1.61,7.58-4.22,10.18-2.59,2.62-6.19,4.22-10.18,4.22H15.4c-7.94,0-14.4-6.46-14.4-14.4h62.21c1.66,0,3.28.81,4.07,2.27.81,1.5,2.41,2.53,4.23,2.53h19.2c1.82,0,3.41-1.03,4.23-2.53.79-1.46,2.41-2.27,4.07-2.27h62.21Z"/>
</svg>