<?xml version="1.0" encoding="UTF-8"?>
<svg id="TRANSPARENT" xmlns="http://www.w3.org/2000/svg" viewBox="0 0 126.62 128.05">
  <defs>
    <style>
      .cls-1, .cls-2, .cls-3, .cls-4 {
        fill-rule: evenodd;
      }

      .cls-1, .cls-3 {
        fill: #fff;
      }

      .cls-2, .cls-3, .cls-4 {
        stroke: #fff;
        stroke-miterlimit: 10;
      }

      .cls-2, .cls-4 {
        fill: none;
      }

      .cls-3 {
        stroke-width: 1.02px;
      }

      .cls-4 {
        stroke-width: 2.05px;
      }
    </style>
  </defs>
  <g>
    <path class="cls-4" d="M19.4,37.77c-4.87,0-9.55-1.94-12.99-5.38-3.45-3.45-5.38-8.12-5.38-12.99,0-4.87,1.94-9.55,5.38-12.99C9.85,2.96,14.53,1.02,19.4,1.02c4.87,0,9.55,1.94,12.99,5.38,3.45,3.45,5.38,8.12,5.38,12.99,0,10.15-8.23,18.38-18.38,18.38Z"/>
    <polygon class="cls-2" points="33.87 19.4 18.75 7.9 18.75 13.54 6.81 13.54 6.81 25.26 18.75 25.26 18.75 30.9 33.87 19.4"/>
  </g>
  <g>
    <path class="cls-4" d="M125.6,109.78c0,4.57-1.82,8.96-5.05,12.19-3.23,3.23-7.62,5.05-12.19,5.05s-8.96-1.82-12.19-5.05c-3.23-3.23-5.05-7.62-5.05-12.19,0-4.57,1.82-8.96,5.05-12.19,3.23-3.23,7.62-5.05,12.19-5.05,9.52,0,17.25,7.72,17.25,17.25Z"/>
    <path class="cls-1" d="M108.35,97.99c-6.5,0-11.79,5.29-11.79,11.79,0,6.5,5.29,11.79,11.79,11.79,6.5,0,11.79-5.29,11.79-11.79,0-6.5-5.29-11.79-11.79-11.79ZM108.35,99.8c5.52,0,9.98,4.46,9.98,9.98s-4.46,9.98-9.98,9.98c-5.52,0-9.98-4.46-9.98-9.98,0-5.52,4.46-9.98,9.98-9.98Z"/>
    <path class="cls-2" d="M114.39,109.78c0,1.6-.64,3.14-1.77,4.27-1.13,1.13-2.67,1.77-4.27,1.77-1.6,0-3.14-.64-4.27-1.77-1.13-1.13-1.77-2.67-1.77-4.27,0-1.6.64-3.14,1.77-4.27,1.13-1.13,2.67-1.77,4.27-1.77,3.33,0,6.04,2.7,6.04,6.04Z"/>
  </g>
  <g>
    <path class="cls-3" d="M74.66,107.22c.22.85.35,1.73.35,2.62,0,1-.15,1.98-.42,2.92h16.43v-5.53h-16.36Z"/>
    <path class="cls-3" d="M75,19.4c0,.94-.14,1.87-.38,2.77h6.62c11.06,0,19.88,8.82,19.88,19.88,0,5.33-2.06,10.13-5.43,13.69.86.47,1.65,1.06,2.36,1.76.62.62,1.15,1.32,1.59,2.07,4.34-4.56,7.02-10.73,7.02-17.52,0-14.03-11.38-25.41-25.41-25.41h-6.62c.25.89.38,1.82.38,2.77Z"/>
    <path class="cls-3" d="M80.19,64.89c0-1.02.15-2.01.43-2.97h-35.84c.28.96.43,1.96.43,2.97,0,.87-.12,1.73-.33,2.56h35.63c-.21-.83-.33-1.69-.33-2.56Z"/>
    <path class="cls-3" d="M54.07,109.83c0-.89.13-1.77.35-2.62h-11.48c-11.06,0-19.88-8.82-19.88-19.88,0-5.45,2.15-10.35,5.64-13.92-.47-.34-.93-.71-1.34-1.12-.91-.91-1.63-1.99-2.15-3.14-4.73,4.61-7.68,11.05-7.68,18.19,0,14.03,11.38,25.41,25.41,25.41h11.56c-.27-.94-.42-1.92-.42-2.92Z"/>
    <path class="cls-3" d="M54.46,22.17c-.25-.89-.38-1.82-.38-2.77s.14-1.87.38-2.77h-17.29v5.53h17.29Z"/>
  </g>
  <path class="cls-4" d="M45.22,64.89c0,2.78-1.1,5.44-3.07,7.4s-4.62,3.07-7.4,3.07c-2.78,0-5.44-1.1-7.4-3.07-1.96-1.96-3.07-4.62-3.07-7.4,0-2.78,1.1-5.44,3.07-7.4,1.96-1.96,4.62-3.07,7.4-3.07,2.78,0,5.44,1.1,7.4,3.07s3.07,4.62,3.07,7.4Z"/>
  <path class="cls-4" d="M75,19.4c0,2.78-1.1,5.44-3.07,7.4-1.96,1.96-4.62,3.07-7.4,3.07-2.78,0-5.44-1.1-7.4-3.07-1.96-1.96-3.07-4.62-3.07-7.4,0-2.78,1.1-5.44,3.07-7.4,1.96-1.96,4.62-3.07,7.4-3.07,2.78,0,5.44,1.1,7.4,3.07,1.96,1.96,3.07,4.62,3.07,7.4Z"/>
  <path class="cls-4" d="M101.12,64.89c0,2.78-1.1,5.44-3.07,7.4-1.96,1.96-4.62,3.07-7.4,3.07-2.78,0-5.44-1.1-7.4-3.07-1.96-1.96-3.07-4.62-3.07-7.4,0-2.78,1.1-5.44,3.07-7.4,1.96-1.96,4.62-3.07,7.4-3.07,2.78,0,5.44,1.1,7.4,3.07,1.96,1.96,3.07,4.62,3.07,7.4Z"/>
  <path class="cls-4" d="M75,109.83c0,2.78-1.1,5.44-3.07,7.4-1.96,1.96-4.62,3.07-7.4,3.07-2.78,0-5.44-1.1-7.4-3.07-1.96-1.96-3.07-4.62-3.07-7.4,0-2.78,1.1-5.44,3.07-7.4,1.96-1.96,4.62-3.07,7.4-3.07,2.78,0,5.44,1.1,7.4,3.07,1.96,1.96,3.07,4.62,3.07,7.4Z"/>
</svg>